<svg xmlns="http://www.w3.org/2000/svg" viewBox="0 0 1080 1080" width="1080" height="1080"
     preserveAspectRatio="xMidYMid meet" style="width: 100%; height: 100%; transform: translate3d(0px, 0px, 0px);">
    <defs>
        <clipPath id="__lottie_element_38">
            <rect width="1080" height="1080" x="0" y="0"></rect>
        </clipPath>
    </defs>
    <g clip-path="url(#__lottie_element_38)">
        <g transform="matrix(1,0,0,1,0,0)" opacity="1" style="display: block;">
            <rect width="1080" height="1080" fill="#ffffff"></rect>
        </g>
        <g transform="matrix(0.9648100137710571,0,0,0.9648100137710571,27.0025634765625,20.0025634765625)" opacity="1"
           style="display: block;">
            <g opacity="1" transform="matrix(1,0,0,1,523.8679809570312,675.166015625)">
                <path fill="rgb(239,244,255)" fill-opacity="1"
                      d=" M124.31500244140625,-331.927001953125 C48.19900131225586,-334.0039978027344 -73.38600158691406,-274.239013671875 -137.42999267578125,-194.41000366210938 C-235.59100341796875,-72.05500030517578 -329.9599914550781,-132.02499389648438 -421.2820129394531,-49.130001068115234 C-490.3450012207031,13.560999870300293 -512.0070190429688,148.93499755859375 -409.24700927734375,219.14100646972656 C-306.489013671875,289.34698486328125 -129.03900146484375,214.01699829101562 -24.139999389648438,256.5509948730469 C80.75800323486328,299.0849914550781 174.70599365234375,334.0050048828125 281.40301513671875,317.9339904785156 C403.87799072265625,299.4859924316406 512.0070190429688,188.7949981689453 492.0369873046875,-8.901000022888184 C466.48199462890625,-261.8710021972656 286.760986328125,-327.4939880371094 124.31500244140625,-331.927001953125z"></path>
            </g>
            <g opacity="1"
               transform="matrix(1.1568528413772583,0,0,1.1568528413772583,265.8450012207031,769.0869750976562)">
                <path fill="rgb(153,172,248)" fill-opacity="1"
                      d=" M24.975000381469727,-64.9729995727539 C2.3269999027252197,-67.36000061035156 -39.404998779296875,-66.36900329589844 -61.928001403808594,-60.516998291015625 C-82.44000244140625,-55.1870002746582 -101.90899658203125,-31.517000198364258 -70.93800354003906,-20.53700065612793 C-39.96799850463867,-9.557000160217285 -65.7300033569336,3.9579999446868896 -106.97599792480469,5.927999973297119 C-148.22300720214844,7.89900016784668 -166.66400146484375,35.06800079345703 -137.6649932861328,50.13100051879883 C-108.66600036621094,65.19400024414062 -49.54100036621094,66.17900085449219 -0.5509999990463257,66.17900085449219 C48.4370002746582,66.17900085449219 111.78600311279297,58.577999114990234 138.53199768066406,42.52899932861328 C165.2790069580078,26.481000900268555 144.7259979248047,11.277999877929688 135.43499755859375,7.053999900817871 C126.14399719238281,2.8320000171661377 117.13400268554688,1.8459999561309814 119.66799926757812,-4.770999908447266 C122.2030029296875,-11.38700008392334 133.6649932861328,-30.636999130249023 116.75900268554688,-45.505001068115234 C88.13500213623047,-70.67900085449219 49.242000579833984,-62.41600036621094 24.975000381469727,-64.9729995727539z"></path>
            </g>
        </g>
        <g transform="matrix(0.949999988079071,0,0,0.949999988079071,195,16)" opacity="1" style="display: block;">
            <g opacity="1" transform="matrix(1,0,0,1,773.2020263671875,834.3670043945312)">
                <path fill="rgb(247,116,184)" fill-opacity="1"
                      d=" M1.6649999618530273,-115.80799865722656 C1.6649999618530273,-115.80799865722656 54.46491241455078,-86.10502624511719 58.215911865234375,-31.281028747558594 C61.546913146972656,17.400970458984375 62.26980972290039,58.70170974731445 20.51565933227539,84.43437194824219 C-27.37407875061035,114.07510375976562 -56.2747688293457,72.34210968017578 -47.19276428222656,43.45734786987305 C-37.90009307861328,14.932157516479492 36.43328094482422,-26.464038848876953 -12.249829292297363,-82.17383575439453 C-12.249829292297363,-105.74883270263672 1.6649999618530273,-115.80799865722656 1.6649999618530273,-115.80799865722656z"></path>
            </g>
            <g opacity="1" transform="matrix(1,0,0,1,357.114013671875,735.177001953125)">
                <path fill="rgb(247,116,184)" fill-opacity="1"
                      d=" M-10.902000427246094,-52.31800079345703 C-10.902000427246094,-52.31800079345703 -12.847000122070312,-9.920000076293945 -16.347999572753906,-4.861999988555908 C-19.849000930786133,0.19499999284744263 -51.334999084472656,8.946999549865723 -53.08599853515625,18.865999221801758 C-54.83599853515625,28.785999298095703 -54.64099884033203,46.09400177001953 -38.69300079345703,49.20500183105469 C-22.7450008392334,52.319000244140625 11.293000221252441,51.53799819946289 20.034000396728516,51.1510009765625 C28.77400016784668,50.762001037597656 46.86199951171875,26.2549991607666 54.834999084472656,-29.756999969482422 C7.379000186920166,-51.345001220703125 -10.902000427246094,-52.31800079345703 -10.902000427246094,-52.31800079345703z"></path>
            </g>
            <g opacity="1" transform="matrix(1,0,0,1,457.52899169921875,251.32699584960938)">
                <path fill="rgb(255,150,200)" fill-opacity="1"
                      d=" M-28.569000244140625,-99.03199768066406 C-28.569000244140625,-99.03199768066406 -72.39900207519531,-140.6999969482422 -89.05400085449219,-151.2050018310547 C-105.70899963378906,-161.71099853515625 -127.78299713134766,-155.04600524902344 -120.8270034790039,-145.56900024414062 C-108.05599975585938,-128.1699981689453 -105.95099639892578,-93.90699768066406 -105.95099639892578,-93.90699768066406 C-105.95099639892578,-93.90699768066406 -152.0709991455078,-51.117000579833984 -169.4949951171875,-3.7149999141693115 C-186.91799926757812,43.6870002746582 -190.76199340820312,139.77200317382812 -80.84100341796875,152.58399963378906 C29.08099937438965,165.39500427246094 142.33299255371094,129.01100158691406 190.76100158691406,96.21399688720703 C174.87399291992188,16.013999938964844 152.32699584960938,-88.5270004272461 147.2030029296875,-117.4800033569336 C142.0780029296875,-146.4340057373047 126.19200134277344,-160.73199462890625 108.76799774169922,-160.62899780273438 C91.34400177001953,-160.52699279785156 69.8219985961914,-120.04299926757812 63.159000396728516,-95.44499969482422 C17.29400062561035,-100.82499694824219 -28.569000244140625,-99.03199768066406 -28.569000244140625,-99.03199768066406z"></path>
            </g>
            <g opacity="1" transform="matrix(1,0,0,1,556.31298828125,139.5540008544922)">
                <path fill="rgb(255,182,220)" fill-opacity="1"
                      d=" M-23.378000259399414,18.80500030517578 C-23.378000259399414,18.80500030517578 -8.208000183105469,-30.134000778198242 4.945000171661377,-29.878000259399414 C16.761999130249023,-29.648000717163086 22.23699951171875,7.0980000495910645 23.226999282836914,25.23200035095215 C23.378999710083008,27.9950008392334 20.857999801635742,30.132999420166016 18.152000427246094,29.55500030517578 C2.0820000171661377,26.115999221801758 -23.378000259399414,18.80500030517578 -23.378000259399414,18.80500030517578z"></path>
            </g>
            <g opacity="1" transform="matrix(1,0,0,1,374.18701171875,127.88999938964844)">
                <path fill="rgb(255,182,220)" fill-opacity="1"
                      d=" M-22.905000686645508,29.701000213623047 C-22.905000686645508,29.701000213623047 -26.950000762939453,-13.416999816894531 -36.85200119018555,-21.695999145507812 C-45.91999816894531,-29.277000427246094 15.845000267028809,2.937999963760376 23.047000885009766,19.611000061035156 C24.145000457763672,22.149999618530273 22.520000457763672,25.02899932861328 19.781999588012695,25.422000885009766 C3.513000011444092,27.753999710083008 -22.905000686645508,29.701000213623047 -22.905000686645508,29.701000213623047z"></path>
            </g>
            <g opacity="1" transform="matrix(1,0,0,1,553.22802734375,580.6229858398438)">
                <path fill="rgb(255,150,200)" fill-opacity="1"
                      d=" M95.06199645996094,-233.08200073242188 C102.8759994506836,-201.5659942626953 149.3820037841797,-117.77899932861328 177.8249969482422,-71.65899658203125 C206.26400756835938,-25.538000106811523 231.3730010986328,32.369998931884766 229.83599853515625,105.4800033569336 C228.2989959716797,178.58999633789062 200.6959991455078,198.57699584960938 162.48399353027344,209.6790008544922 C124.27200317382812,220.7830047607422 100.6989974975586,217.70899963378906 78.49299621582031,220.61199951171875 C56.2859992980957,223.51600646972656 33.05400085449219,233.08200073242188 18.02400016784668,220.61199951171875 C2.992000102996826,208.14199829101562 -4.868000030517578,200.7969970703125 -21.60700035095215,209.50799560546875 C-38.347999572753906,218.22000122070312 -80.87999725341797,215.82899475097656 -91.98400115966797,212.9250030517578 C-103.08599853515625,210.02200317382812 -108.55400085449219,187.81500244140625 -89.93499755859375,176.3699951171875 C-120.33899688720703,186.10699462890625 -197.9709930419922,177.1820068359375 -216.51100158691406,102.06400299072266 C-231.3730010986328,41.849998474121094 -186.50599670410156,-82.65799713134766 -176.5399932861328,-111.11799621582031 C-166.31399536132812,-140.31300354003906 -161.67799377441406,-156.47000122070312 -167.31399536132812,-182.86099243164062 C-130.16299438476562,-193.36700439453125 95.06199645996094,-233.08200073242188 95.06199645996094,-233.08200073242188z"></path>
            </g>
            <g opacity="1" transform="matrix(1,0,0,1,709.4660034179688,536.2529907226562)">
                <path fill="rgb(247,116,184)" fill-opacity="1"
                      d=" M-29.40399932861328,-117.04499816894531 C-29.40399932861328,-117.04499816894531 -69.50399780273438,-73.40899658203125 -61.17499923706055,-28.825000762939453 C-55.375,2.2360000610351562 -17.104000091552734,19.34600067138672 -13.005999565124512,45.99300003051758 C-8.906000137329102,72.64099884033203 20.315000534057617,117.04499816894531 69.50399780273438,94.0739974975586 C63.35100173950195,17.80900001525879 -29.40399932861328,-117.04499816894531 -29.40399932861328,-117.04499816894531z"></path>
            </g>
            <g opacity="1" transform="matrix(1,0,0,1,415.39898681640625,610.7940063476562)">
                <path fill="rgb(255,182,220)" fill-opacity="1" d="M0 0"></path>
            </g>
            <g opacity="1" transform="matrix(1,0,0,1,485.0660095214844,649.5280151367188)">
                <path fill="rgb(247,116,184)" fill-opacity="1"
                      d=" M16.440000534057617,-104.7239990234375 C16.496999740600586,-67.61699676513672 13.126999855041504,-30.649999618530273 9.52400016784668,6.25 C7.730000019073486,24.608999252319336 6.098999977111816,43.027000427246094 2.819999933242798,61.198001861572266 C0.40400001406669617,74.58300018310547 -2.5280001163482666,98.5719985961914 -19.766000747680664,100.79000091552734 C-25.430999755859375,101.51699829101562 -25.503000259399414,110.5260009765625 -19.766000747680664,109.79000091552734 C-2.486999988555908,107.56600189208984 5.236000061035156,91.9990005493164 8.835000038146973,76.64399719238281 C13.343999862670898,57.400001525878906 15.42199993133545,37.630001068115234 17.371000289916992,17.993999481201172 C21.420000076293945,-22.80299949645996 25.503000259399414,-63.68299865722656 25.440000534057617,-104.7239990234375 C25.430999755859375,-110.51499938964844 16.430999755859375,-110.5250015258789 16.440000534057617,-104.7239990234375z"></path>
            </g>
            <g opacity="1" transform="matrix(1,0,0,1,557.6069946289062,702.72802734375)">
                <path fill="rgb(247,116,184)" fill-opacity="1"
                      d=" M20.422000885009766,-85.88999938964844 C17.607999801635742,-56.61800003051758 11.345999717712402,-27.81999969482422 3.318000078201294,0.4390000104904175 C-0.6349999904632568,14.348999977111816 -5.008999824523926,28.13599967956543 -9.61400032043457,41.840999603271484 C-11.918000221252441,48.691001892089844 -14.276000022888184,55.520999908447266 -16.677000045776367,62.3390007019043 C-19.009000778198242,68.96399688720703 -21.260000228881836,75.71600341796875 -26.08099937438965,81 C-29.979000091552734,85.26899719238281 -23.634000778198242,91.6520004272461 -19.7189998626709,87.36399841308594 C-10.23900032043457,76.9800033569336 -6.866000175476074,61.696998596191406 -2.446000099182129,48.70199966430664 C2.5139999389648438,34.119998931884766 7.230999946594238,19.45199966430664 11.479999542236328,4.644000053405762 C19.981000900268555,-24.986000061035156 26.4689998626709,-55.176998138427734 29.422000885009766,-85.88999938964844 C29.97800064086914,-91.6520004272461 20.974000930786133,-91.61399841308594 20.422000885009766,-85.88999938964844z"></path>
            </g>
            <g opacity="1"
               transform="matrix(1.0602099895477295,0,0,1.0602099895477295,363.2239990234375,550.5260009765625)">
                <path fill="rgb(255,182,220)" fill-opacity="1"
                      d=" M44.75,-115 C31.5,-115.25 8.75,-69.75 8.75,-69.75 C8.75,-69.75 -34.25,49.5 -27,111.25 C-22,185.75 56.5,203 85.75,197.25 C115,191.5 116.75,167.5 120.75,143 C124.75,118.5 131,20.75 131,20.75 C131,20.75 125.75,-8.5 107.75,-52 C89.75,-95.5 58.5,-110.5 58.5,-110.5 C58.5,-110.5 58,-114.75 44.75,-115z"></path>
                <path stroke-linecap="butt" stroke-linejoin="miter" fill-opacity="0" stroke-miterlimit="4"
                      stroke="rgb(253,193,114)" stroke-opacity="1" stroke-width="36" d="M0 0"></path>
            </g>
            <g opacity="1" transform="matrix(1,0,0,1,605.343994140625,687.2780151367188)">
                <path fill="rgb(247,116,184)" fill-opacity="1"
                      d=" M18.43600082397461,-76.79100036621094 C4.433000087738037,-70.06600189208984 -8.803000450134277,-58.39899826049805 -19.100000381469727,-46.874000549316406 C-29.368000030517578,-35.3849983215332 -35.417999267578125,-21.18400001525879 -38.792999267578125,-6.269000053405762 C-42.17100143432617,8.675999641418457 -45.35599899291992,26.042999267578125 -39.52399826049805,40.72700119018555 C-34.604000091552734,53.11199951171875 -24.635000228881836,63.060001373291016 -12.937999725341797,69.23100280761719 C3.128999948501587,77.71199798583984 21.68899917602539,79.28900146484375 39.551998138427734,79.0250015258789 C45.3380012512207,78.93900299072266 45.35599899291992,69.93900299072266 39.551998138427734,70.0250015258789 C21.628000259399414,70.29000091552734 2.6610000133514404,68.8219985961914 -12.822999954223633,58.8849983215332 C-27.48699951171875,49.47100067138672 -34.750999450683594,34.91999816894531 -33.422000885009766,17.555999755859375 C-32.09199905395508,0.14900000393390656 -28.106000900268555,-18.39699935913086 -18.40999984741211,-33.17100143432617 C-13.402000427246094,-40.80099868774414 -6.574999809265137,-46.95199966430664 0.2460000067949295,-52.92399978637695 C7.293000221252441,-59.09600067138672 14.487000465393066,-64.94100189208984 22.979000091552734,-69.0199966430664 C28.198999404907227,-71.5260009765625 23.63800048828125,-79.28900146484375 18.43600082397461,-76.79100036621094z"></path>
            </g>
            <g opacity="1" transform="matrix(1,0,0,1,588.2670288085938,775.3759765625)">
                <path fill="rgb(247,116,184)" fill-opacity="1"
                      d=" M20.643999099731445,-19.9060001373291 C9.03600025177002,-15.406999588012695 -3.053999900817871,-11.48799991607666 -14.350000381469727,-6.252999782562256 C-23.04400062561035,-2.2200000286102295 -28.37700080871582,6.616000175476074 -27.518999099731445,16.229000091552734 C-27.007999420166016,21.951000213623047 -18.003000259399414,22.0049991607666 -18.518999099731445,16.229000091552734 C-19.41900062561035,6.150000095367432 -12.442000389099121,2.5239999294281006 -4.252999782562256,-0.6499999761581421 C4.8420000076293945,-4.177000045776367 13.939000129699707,-7.703000068664551 23.035999298095703,-11.22700023651123 C28.37700080871582,-13.300000190734863 26.055999755859375,-22.006000518798828 20.643999099731445,-19.9060001373291z"></path>
            </g>
            <g opacity="1" transform="matrix(1,0,0,1,467.8299865722656,783.0679931640625)">
                <path fill="rgb(247,116,184)" fill-opacity="1"
                      d=" M-2.500999927520752,-10.397000312805176 C-5.048999786376953,-4.750999927520752 -6.276000022888184,1.187000036239624 -5.702000141143799,7.385000228881836 C-5.172999858856201,13.104999542236328 3.8320000171661377,13.16100025177002 3.2980000972747803,7.385000228881836 C2.875999927520752,2.8299999237060547 3.372999906539917,-1.6519999504089355 5.269999980926514,-5.854000091552734 C6.2769999504089355,-8.085000038146973 5.894999980926514,-10.670000076293945 3.6559998989105225,-12.01099967956543 C1.7389999628067017,-13.16100025177002 -1.503999948501587,-12.607000350952148 -2.500999927520752,-10.397000312805176z"></path>
            </g>
            <g opacity="1" transform="matrix(1,0,0,1,498.7250061035156,782.9849853515625)">
                <path fill="rgb(247,116,184)" fill-opacity="1"
                      d=" M-3.556999921798706,-9.772000312805176 C-6.642000198364258,-3.8420000076293945 -6.881999969482422,2.565999984741211 -6.690999984741211,9.116999626159668 C-6.520999908447266,14.894000053405762 2.4800000190734863,14.918000221252441 2.309000015258789,9.116999626159668 C2.1679999828338623,4.2769999504089355 1.9149999618530273,-0.8100000023841858 4.214000225067139,-5.230000019073486 C6.882999897003174,-10.362000465393066 -0.8799999952316284,-14.918000221252441 -3.556999921798706,-9.772000312805176z"></path>
            </g>
            <g opacity="1" transform="matrix(1,0,0,1,521.9390258789062,403.8039855957031)">
                <path fill="rgb(100,138,234)" fill-opacity="1"
                      d=" M-134.47999572753906,2.740000009536743 C-134.47999572753906,2.740000009536743 4.900000095367432,14.456000328063965 126.35199737548828,-56.26300048828125 C132.9239959716797,-37.29199981689453 141.8979949951172,-17.062999725341797 141.8979949951172,-17.062999725341797 C141.8979949951172,-17.062999725341797 21.079999923706055,56.26300048828125 -136.2519989013672,36.69599914550781 C-141.8979949951172,27.378000259399414 -134.47999572753906,2.740000009536743 -134.47999572753906,2.740000009536743z"></path>
            </g>
            <g opacity="1"
               transform="matrix(0.9961900115013123,0,0,0.9961900115013123,346.07000732421875,262.8580017089844)">
                <path fill="rgb(65,62,75)" fill-opacity="1"
                      d=" M-18.57699966430664,-8.753999710083008 C-15.029999732971191,-11.857000350952148 14.98900032043457,-12.597999572753906 18.149999618530273,-10.633000373840332 C21.309999465942383,-8.668999671936035 17.80699920654297,12.597999572753906 -0.2150000035762787,12.597999572753906 C-18.236000061035156,12.597999572753906 -21.30900001525879,-6.36299991607666 -18.57699966430664,-8.753999710083008z"></path>
            </g>
            <g opacity="1"
               transform="matrix(0.9961900115013123,0,0,0.9961900115013123,475.07000732421875,262.8580017089844)">
                <path fill="rgb(65,62,75)" fill-opacity="1"
                      d=" M-18.57699966430664,-8.753999710083008 C-15.029999732971191,-11.857000350952148 14.98900032043457,-12.597999572753906 18.149999618530273,-10.633000373840332 C21.309999465942383,-8.668999671936035 17.80699920654297,12.597999572753906 -0.2150000035762787,12.597999572753906 C-18.236000061035156,12.597999572753906 -21.30900001525879,-6.36299991607666 -18.57699966430664,-8.753999710083008z"></path>
            </g>
            <g opacity="1" transform="matrix(1,0,0,1,408.9729919433594,329.0069885253906)">
                <path stroke-linecap="round" stroke-linejoin="miter" fill-opacity="0" stroke-miterlimit="10"
                      stroke="rgb(65,62,75)" stroke-opacity="1" stroke-width="9"
                      d=" M-16.739999771118164,11.871999740600586 C-16.739999771118164,11.871999740600586 -7.343999862670898,-11.871999740600586 -1.7079999446868896,-11.359000205993652 C3.930000066757202,-10.847000122070312 16.739999771118164,11.871999740600586 16.739999771118164,11.871999740600586"></path>
            </g>
            <g opacity="1" transform="matrix(1,0,0,1,281.35699462890625,296.5799865722656)">
                <path fill="rgb(247,116,184)" fill-opacity="1"
                      d=" M-18.61272621154785,3.5181286334991455 C-7.005995750427246,5.640407562255859 6,3.9619998931884766 17.944000244140625,4.822999954223633 C23.722999572753906,5.238999843597412 23.695999145507812,-3.76200008392334 17.944000244140625,-4.177000045776367 C6,-5.038000106811523 -6.481440544128418,-3.1246488094329834 -17.94700050354004,-5.240368843078613 C-23.803367614746094,-5.646340847015381 -23.857210159301758,2.5736587047576904 -18.61272621154785,3.5181286334991455z"></path>
            </g>
            <g opacity="1" transform="matrix(1,0,0,1,280.5350036621094,335.27801513671875)">
                <path fill="rgb(247,116,184)" fill-opacity="1"
                      d=" M-19.221435546875,3.9281694889068604 C-10.013197898864746,2.8524439334869385 7.046999931335449,1.5779999494552612 17.417999267578125,-1.815000057220459 C22.898000717163086,-3.6080000400543213 20.552000045776367,-12.300999641418457 15.024999618530273,-10.493000030517578 C3.9140000343322754,-6.857999801635742 -7.146753787994385,-5.087259292602539 -19.816434860229492,-3.711538553237915 C-25.121755599975586,-3.1379857063293457 -24.373382568359375,4.378145694732666 -19.221435546875,3.9281694889068604z"></path>
            </g>
            <g opacity="1" transform="matrix(1,0,0,1,526.47998046875,290.90899658203125)">
                <path fill="rgb(247,116,184)" fill-opacity="1"
                      d=" M-13.369999885559082,11.64799976348877 C-2.993103504180908,7.540807723999023 9.917071342468262,4.229379653930664 17.675317764282227,1.2708873748779297 C22.421903610229492,-0.9216210842132568 20.40642547607422,-10.07372760772705 15.282318115234375,-7.408112525939941 C5.198147773742676,-0.5252091884613037 -6.355836868286133,0.4946027994155884 -17.913000106811523,3.877000093460083 C-23.391511917114258,5.473217487335205 -18.74757957458496,13.76414966583252 -13.369999885559082,11.64799976348877z"></path>
            </g>
            <g opacity="1" transform="matrix(1,0,0,1,533.031982421875,325.0400085449219)">
                <path fill="rgb(247,116,184)" fill-opacity="1"
                      d=" M-16.45800018310547,2.6760001182556152 C-6.748753547668457,-0.12828223407268524 5.094080448150635,2.505171775817871 15.251214981079102,-1.2517945766448975 C22.149930953979492,-4.984251022338867 18.710086822509766,-13.901110649108887 14.025568962097168,-8.6465482711792 C7.567828178405762,-3.45381760597229 -3.273071765899658,-9.273066520690918 -16.45800018310547,-6.323999881744385 C-22.043832778930664,-5.031975746154785 -21.997745513916016,4.247101306915283 -16.45800018310547,2.6760001182556152z"></path>
            </g>
            <g opacity="1" transform="matrix(1,0,0,1,414.1520080566406,149.6999969482422)">
                <path fill="rgb(247,116,184)" fill-opacity="1"
                      d=" M-12.479000091552734,4.7729997634887695 C-4.144999980926514,3.868000030517578 4.072999954223633,3.6019999980926514 12.447999954223633,3.9619998931884766 C18.23900032043457,4.210999965667725 18.226999282836914,-4.789000034332275 12.447999954223633,-5.038000106811523 C4.072999954223633,-5.3979997634887695 -4.144999980926514,-5.131999969482422 -12.479000091552734,-4.2270002365112305 C-18.176000595092773,-3.6089999675750732 -18.23900032043457,5.3979997634887695 -12.479000091552734,4.7729997634887695z"></path>
            </g>
            <g opacity="1" transform="matrix(1,0,0,1,534.2080078125,156.39100646972656)">
                <path fill="rgb(247,116,184)" fill-opacity="1"
                      d=" M-9.675000190734863,1.656999945640564 C-3.5980000495910645,1.7510000467300415 2.138000011444092,2.993000030517578 7.76800012588501,5.265999794006348 C13.13700008392334,7.433000087738037 15.472000122070312,-1.2690000534057617 10.16100025177002,-3.4119999408721924 C3.811000108718872,-5.974999904632568 -2.8329999446868896,-7.236999988555908 -9.675000190734863,-7.3429999351501465 C-15.468999862670898,-7.433000087738037 -15.470999717712402,1.5670000314712524 -9.675000190734863,1.656999945640564z"></path>
            </g>
            <g opacity="1" transform="matrix(1,0,0,1,392.2330017089844,463.4289855957031)">
                <path fill="rgb(255,210,141)" fill-opacity="1"
                      d=" M27.8439998626709,0 C27.8439998626709,14.394000053405762 15.376999855041504,26.062000274658203 -0.0010000000474974513,26.062000274658203 C-15.378000259399414,26.062000274658203 -27.8439998626709,14.394000053405762 -27.8439998626709,0 C-27.8439998626709,-14.394000053405762 -15.378000259399414,-26.062000274658203 -0.0010000000474974513,-26.062000274658203 C15.376999855041504,-26.062000274658203 27.8439998626709,-14.394000053405762 27.8439998626709,0z"></path>
            </g>
            <g opacity="1" transform="matrix(1,0,0,1,389.5050048828125,461.1029968261719)">
                <path fill="rgb(65,62,75)" fill-opacity="1"
                      d=" M12.574000358581543,1.6979999542236328 C12.050999641418457,5.571000099182129 5.998000144958496,7.948999881744385 -0.9470000267028809,7.011000156402588 C-7.892000198364258,6.072999954223633 -13.097000122070312,2.1740000247955322 -12.572999954223633,-1.6979999542236328 C-12.050999641418457,-5.571000099182129 -5.997000217437744,-7.948999881744385 0.9470000267028809,-7.011000156402588 C7.890999794006348,-6.072999954223633 13.097000122070312,-2.1740000247955322 12.574000358581543,1.6979999542236328z"></path>
            </g>
            <g opacity="1" transform="matrix(1,0,0,1,386.3559875488281,476.9570007324219)">
                <path stroke-linecap="butt" stroke-linejoin="miter" fill-opacity="0" stroke-miterlimit="10"
                      stroke="rgb(65,62,75)" stroke-opacity="1" stroke-width="7"
                      d=" M2.884999990463257,-14.968000411987305 C2.884999990463257,-14.968000411987305 -2.885999917984009,-1.8580000400543213 -0.3540000021457672,14.968000411987305"></path>
            </g>
        </g>
        <g transform="matrix(1,0,0,1,540,540)" opacity="1" style="display: block;">
            <g opacity="1" transform="matrix(1,0,0,1,0,0)">
                <path fill="rgb(101,139,234)" fill-opacity="1"
                      d=" M-289.625,105.18800354003906 C-289.625,105.18800354003906 -245.25,135.375 -245.25,135.375 C-245.25,135.375 -262.375,174.125 -262.375,174.125 C-262.375,174.125 -240.25,182 -240.25,182 C-240.25,182 -249.875,209.75 -249.875,209.75 C-249.875,209.75 -116.5,201.875 -116.5,201.875 C-116.5,201.875 -107.375,189.375 -107.375,166.375 C-107.375,143.375 -115.5,124.5 -115.5,124.5 C-115.5,124.5 -289.625,105.18800354003906 -289.625,105.18800354003906z"></path>
                <path stroke-linecap="butt" stroke-linejoin="miter" fill-opacity="0" stroke-miterlimit="4"
                      stroke="rgb(0,255,24)" stroke-opacity="1" stroke-width="2" d="M0 0"></path>
            </g>
            <g opacity="1" transform="matrix(1,0,0,1,0,0)">
                <path fill="rgb(101,139,234)" fill-opacity="1"
                      d=" M-337.5,249.25 C-337.5,249.25 -276.25,318.5 -276.25,318.5 C-276.25,318.5 -243.75,303.75 -243.75,303.75 C-243.75,303.75 -267,292 -267,292 C-267,292 -259.75,257.75 -259.75,257.75 C-259.75,257.75 -337.5,249.25 -337.5,249.25z"></path>
                <path stroke-linecap="butt" stroke-linejoin="miter" fill-opacity="0" stroke-miterlimit="4"
                      stroke="rgb(255,255,255)" stroke-opacity="1" stroke-width="2" d="M0 0"></path>
            </g>
            <g opacity="1" transform="matrix(1,0,0,1,0,0)">
                <path fill="rgb(101,139,234)" fill-opacity="1"
                      d=" M-184.5,233.5 C-184.5,233.5 -211,258.5 -211,258.5 C-211,258.5 -169.75,261 -169.75,261 C-169.75,261 -184.5,233.5 -184.5,233.5z"></path>
                <path stroke-linecap="butt" stroke-linejoin="miter" fill-opacity="0" stroke-miterlimit="4"
                      stroke="rgb(255,255,255)" stroke-opacity="1" stroke-width="2" d="M0 0"></path>
            </g>
        </g>
    </g>
</svg>